<svg width="466" height="416" viewBox="0 0 466 416" fill="none" xmlns="http://www.w3.org/2000/svg">
<g clip-path="url(#clip0_55_333)">
<path d="M401.226 378.185H80.4762C74.1413 378.178 68.068 375.658 63.5886 371.179C59.1092 366.699 56.5896 360.626 56.5825 354.292V74.2145C56.5899 67.8801 59.1096 61.8073 63.5889 57.3282C68.0683 52.8491 74.1415 50.3295 80.4762 50.3221H401.226C407.561 50.3292 413.634 52.8487 418.114 57.3278C422.593 61.8069 425.113 67.8799 425.121 74.2145V354.292C425.113 360.626 422.594 366.7 418.114 371.179C413.635 375.658 407.561 378.178 401.226 378.185Z" fill="#323535"/>
<path d="M326.818 126.132H166.537C162.152 126.132 158.597 129.687 158.597 134.072V294.343C158.597 298.727 162.152 302.282 166.537 302.282H326.818C331.202 302.282 334.757 298.727 334.757 294.343V134.072C334.757 129.687 331.202 126.132 326.818 126.132Z" fill="#3B3879"/>
<path d="M401.226 378.938H80.4763C73.9417 378.93 67.6769 376.331 63.0562 371.711C58.4356 367.09 55.8366 360.826 55.8293 354.292V74.2145C55.8368 67.6804 58.436 61.4162 63.0566 56.7959C67.6772 52.1757 73.9419 49.5768 80.4763 49.5695H401.226C407.761 49.5767 414.025 52.1756 418.646 56.7959C423.267 61.4163 425.866 67.6808 425.873 74.215V354.292C425.866 360.826 423.267 367.09 418.646 371.711C414.026 376.331 407.761 378.93 401.226 378.938ZM80.4763 51.0749C74.3411 51.0819 68.4592 53.522 64.1209 57.86C59.7826 62.198 57.3423 68.0796 57.3354 74.2145V354.292C57.3422 360.427 59.7824 366.308 64.1207 370.647C68.459 374.985 74.341 377.425 80.4763 377.432H401.226C407.362 377.425 413.244 374.985 417.583 370.647C421.921 366.309 424.362 360.427 424.369 354.292V74.2145C424.362 68.0795 421.921 62.1978 417.583 57.8598C413.244 53.5218 407.362 51.0817 401.227 51.0749H80.4763Z" fill="#090814"/>
<path d="M20.5641 278.534C18.4316 278.527 16.3681 277.778 14.7273 276.416C13.0866 275.054 11.9709 273.164 11.5715 271.069L0.165295 211.121C-0.288416 208.784 0.187981 206.361 1.49312 204.37C2.79827 202.378 4.82914 200.974 7.15363 200.457L58.2499 188.883C59.4399 188.614 60.6717 188.584 61.8733 188.796C63.0749 189.008 64.2221 189.457 65.2479 190.118C66.2737 190.779 67.1574 191.637 67.8473 192.644C68.5373 193.65 69.0196 194.784 69.2661 195.979L81.6975 256.199C82.1786 258.567 81.7098 261.028 80.3921 263.053C79.0745 265.078 77.0136 266.504 74.6541 267.024L22.5306 278.322C21.8846 278.463 21.2253 278.534 20.5641 278.534Z" fill="#98A6A1"/>
<path d="M16.6371 224.534C15.9803 224.533 15.3474 224.288 14.8624 223.845C14.3774 223.402 14.0752 222.794 14.015 222.14C13.9548 221.486 14.141 220.833 14.5371 220.309C14.9332 219.786 15.5106 219.428 16.1562 219.308L57.465 211.591C57.8051 211.528 58.1545 211.532 58.493 211.603C58.8316 211.675 59.1528 211.812 59.4383 212.008C59.7237 212.203 59.9679 212.453 60.1567 212.743C60.3456 213.033 60.4755 213.357 60.5391 213.698C60.6026 214.038 60.5985 214.387 60.527 214.726C60.4556 215.064 60.3181 215.385 60.1225 215.671C59.9269 215.956 59.677 216.2 59.387 216.389C59.0971 216.578 58.7728 216.708 58.4326 216.771L17.1239 224.488C16.9634 224.519 16.8004 224.534 16.6371 224.534Z" fill="#3B3879"/>
<path d="M20.4024 240.344C19.7567 240.343 19.1336 240.106 18.6514 239.677C18.1692 239.247 17.8614 238.656 17.7864 238.014C17.7114 237.373 17.8745 236.727 18.2446 236.198C18.6148 235.669 19.1663 235.294 19.7945 235.145L58.6801 225.886C59.0176 225.803 59.3682 225.788 59.7115 225.842C60.0549 225.895 60.3843 226.016 60.6807 226.197C60.9772 226.378 61.235 226.616 61.4391 226.898C61.6433 227.179 61.7898 227.498 61.8703 227.836C61.9507 228.174 61.9636 228.524 61.908 228.867C61.8525 229.21 61.7297 229.539 61.5466 229.834C61.3636 230.129 61.1239 230.386 60.8415 230.588C60.559 230.79 60.2394 230.935 59.9008 231.013L21.0147 240.271C20.8141 240.319 20.6086 240.344 20.4024 240.344Z" fill="#3B3879"/>
<path d="M23.0363 255.64C22.3854 255.639 21.7579 255.397 21.2748 254.961C20.7916 254.525 20.487 253.926 20.4195 253.278C20.352 252.631 20.5265 251.982 20.9093 251.455C21.2922 250.929 21.8563 250.563 22.4929 250.427L49.0221 244.81C49.7025 244.674 50.4092 244.811 50.9888 245.192C51.5685 245.574 51.9742 246.169 52.118 246.848C52.2617 247.526 52.1319 248.234 51.7567 248.818C51.3814 249.402 50.7911 249.814 50.1138 249.965L23.5856 255.582C23.405 255.621 23.2209 255.64 23.0363 255.64Z" fill="#3B3879"/>
<path d="M439.352 86.6466C438.877 86.6463 438.403 86.6091 437.934 86.5355L385.246 78.2699C384.036 78.0797 382.876 77.6494 381.835 77.0043C380.794 76.3592 379.893 75.5123 379.184 74.5136C378.475 73.5148 377.974 72.3844 377.709 71.1888C377.444 69.9932 377.42 68.7567 377.64 67.552L388.632 7.52527C389.054 5.18191 390.373 3.09523 392.308 1.70851C394.244 0.321796 396.644 -0.255695 398.998 0.0987129L450.829 7.74013C452.036 7.91842 453.195 8.33541 454.239 8.96672C455.282 9.59804 456.19 10.431 456.908 11.417C457.626 12.403 458.14 13.5222 458.421 14.7092C458.702 15.8962 458.743 17.1273 458.542 18.3304L448.408 78.9814C448.044 81.1212 446.935 83.0635 445.278 84.4659C443.622 85.8682 441.523 86.6405 439.352 86.6466Z" fill="#98A6A1"/>
<path d="M441.423 33.8609C441.26 33.8609 441.097 33.8456 440.937 33.8153L399.626 26.1098C399.285 26.0464 398.961 25.9166 398.671 25.7278C398.381 25.539 398.131 25.295 397.935 25.0096C397.54 24.4333 397.39 23.7236 397.518 23.0367C397.646 22.3497 398.042 21.7418 398.619 21.3466C399.195 20.9515 399.905 20.8014 400.592 20.9296L441.903 28.635C442.549 28.7554 443.126 29.1124 443.522 29.6362C443.919 30.1601 444.105 30.8129 444.045 31.4668C443.985 32.1207 443.682 32.7287 443.197 33.1715C442.713 33.6144 442.08 33.8602 441.423 33.8609Z" fill="#3B3879"/>
<path d="M437.526 47.6512C437.406 47.6514 437.286 47.6433 437.166 47.6269L397.559 42.2332C396.866 42.1389 396.24 41.7733 395.817 41.217C395.394 40.6607 395.209 39.9591 395.304 39.2667C395.398 38.5743 395.764 37.9477 396.32 37.5248C396.876 37.102 397.578 36.9174 398.27 37.0118L437.878 42.4054C438.54 42.495 439.143 42.8327 439.566 43.3503C439.988 43.8678 440.198 44.5264 440.154 45.1929C440.109 45.8595 439.813 46.4841 439.325 46.9405C438.837 47.3968 438.194 47.6509 437.526 47.6512Z" fill="#3B3879"/>
<path d="M421.626 61.8071C421.484 61.8067 421.342 61.7951 421.201 61.7724L394.432 57.4406C393.742 57.3287 393.125 56.9474 392.716 56.3805C392.308 55.8136 392.141 55.1076 392.253 54.4177C392.365 53.7279 392.746 53.1107 393.313 52.7021C393.88 52.2934 394.586 52.1266 395.276 52.2385L422.045 56.5702C422.699 56.6759 423.289 57.0238 423.698 57.5447C424.107 58.0657 424.305 58.7215 424.252 59.3816C424.199 60.0418 423.9 60.6579 423.413 61.1073C422.927 61.5567 422.289 61.8066 421.627 61.8071H421.626Z" fill="#3B3879"/>
<path d="M278.681 207.621C278.681 209.952 278.472 212.278 278.056 214.571C277.306 217.501 276.17 220.318 274.678 222.948C271.819 228.025 268.755 229.92 266.236 234.891C265.803 235.226 265.357 235.527 264.904 235.822C263.999 236.406 263.9 239.265 262.939 239.758C262.933 239.764 262.926 239.764 262.919 239.771C262.623 240.274 262.453 240.841 262.423 241.424V241.438C261.938 244.278 261.518 250.056 261.034 253.473C260.969 253.886 260.909 254.267 260.843 254.601C260.679 255.505 260.51 256.084 260.319 256.155C257.977 257.06 256.98 255.82 254.414 256.155C253.036 256.339 246.005 257.467 244.575 257.467C240.516 257.467 238.318 256.084 235.032 254.601C234.803 254.502 234.573 254.397 234.33 254.293C234.241 254.26 234.167 254.22 234.082 254.188C233.139 253.788 232.246 243.701 231.36 239.883C231.358 239.881 231.356 239.877 231.355 239.874C231.354 239.871 231.353 239.867 231.354 239.863C231.17 239.069 230.987 238.551 230.803 238.447L230.665 238.368C230.081 238.033 229.511 237.666 228.953 237.286C225.573 231.658 219.047 226.304 215.826 217.551C214.901 214.321 214.423 210.98 214.403 207.621C214.386 203.39 215.205 199.198 216.813 195.284C218.421 191.37 220.785 187.813 223.771 184.815C226.757 181.818 230.306 179.439 234.213 177.816C238.121 176.193 242.31 175.358 246.542 175.358C250.773 175.358 254.962 176.193 258.87 177.816C262.777 179.439 266.326 181.818 269.312 184.815C272.298 187.813 274.663 191.37 276.27 195.284C277.878 199.198 278.697 203.39 278.681 207.621Z" fill="#D5D9CC"/>
<path d="M278.057 214.574C277.307 217.503 276.171 220.32 274.679 222.95C271.82 228.026 268.756 229.922 266.237 234.892C264.562 238.204 263.133 242.881 262.157 250.766C262.098 251.232 262.222 251.763 262.157 252.222C262.009 253.238 262.191 253.055 261.573 253.974C261.291 254.131 261.12 253.909 261.028 253.477C260.882 252.386 260.869 251.28 260.988 250.185C261.165 247.23 261.644 244.3 262.418 241.442V241.429C262.575 240.858 262.746 240.307 262.914 239.777C265.951 230.529 271.552 226.338 274.09 221.498C287.424 196.127 262.783 167.809 235.643 177.659C234.187 178.19 234.265 178.498 234.187 178.538C232.147 179.423 230.488 179.81 228.507 181.154C216.482 189.336 212.166 205.529 217.59 218.869C220.528 226.09 226.681 230.163 230.662 238.369C230.9 238.846 231.13 239.344 231.351 239.864C231.35 239.868 231.351 239.872 231.352 239.875C231.353 239.878 231.355 239.882 231.357 239.884C233.228 244.463 234.236 249.348 234.329 254.293C234.336 254.383 234.343 254.464 234.343 254.549C234.578 254.569 234.808 254.582 235.031 254.601C238.515 254.903 240.77 255.461 241.938 254.857L243.224 254.988C243.65 255.584 250.816 254.857 251.96 254.844H252.255C255.119 254.917 257.984 254.835 260.84 254.6C260.984 254.587 261.134 254.567 261.279 254.548C261.47 254.592 261.638 254.707 261.746 254.871C261.855 255.034 261.897 255.233 261.863 255.427C261.953 256.253 260.584 258.646 260.119 258.916C258.775 259.703 236.867 260.103 234.775 258.628C234.165 258.201 233.718 257.58 233.507 256.866C233.296 256.152 233.334 255.388 233.614 254.698C233.575 254.514 232.771 253.99 232.735 253.819C232.342 251.586 232.808 245.93 230.118 239.548C229.785 238.766 229.395 238.01 228.951 237.286C225.572 231.659 219.047 226.306 215.826 217.547C214.136 212.845 213.545 207.819 214.097 202.854C215.258 190.523 225.894 178.391 237.831 175.327C262.813 168.914 283.908 191.566 278.057 214.574Z" fill="#010001"/>
<path d="M260.433 259.596C262.511 261.573 261.401 262.242 260.433 264.548C259.211 264.273 238.297 265.609 235.383 264.548C234.917 264.359 234.507 264.054 234.191 263.664C233.875 263.273 233.664 262.808 233.576 262.313C233.489 261.819 233.529 261.31 233.692 260.834C233.855 260.359 234.137 259.933 234.509 259.596C243.124 260.558 251.818 260.558 260.433 259.596Z" fill="#010001"/>
<path d="M261.597 265.421C262.416 267.24 260.849 268.357 260.141 269.79L258.686 270.082L235.674 269.79C234.288 269.523 233.408 267.583 233.051 266.296C233.027 266.123 233.055 265.946 233.134 265.79C233.212 265.634 233.336 265.505 233.489 265.421L235.382 264.839C242.988 265.454 250.621 265.649 258.248 265.421C258.757 265.125 259.335 264.969 259.923 264.969C260.511 264.969 261.089 265.125 261.597 265.421Z" fill="#010001"/>
<path d="M242.718 241.724H242.114V231.86L230.993 208.311L231.539 208.053L242.718 231.721V241.724Z" fill="#0F0F10"/>
<path d="M246.374 158.254C247.607 157.415 247.627 167.256 247.25 167.575C245.81 168.786 245.961 158.537 246.374 158.254Z" fill="#98A6A1"/>
<path d="M236.468 159.129C237.439 158.504 239.674 167.821 239.529 168.303C238.705 171.047 236.014 159.422 236.468 159.129Z" fill="#98A6A1"/>
<path d="M256.276 159.129C257.431 158.824 255.486 167.883 255.258 168.304C253.074 172.277 255.65 159.294 256.276 159.129Z" fill="#98A6A1"/>
<path d="M252.119 241.739L251.623 230.779L251.634 230.736L257.537 206.47L258.124 206.613L252.231 230.838L252.721 241.713L252.119 241.739Z" fill="#0F0F10"/>
<path d="M402.8 416C401.235 415.995 399.72 415.448 398.512 414.452C397.304 413.456 396.479 412.073 396.175 410.538L384.365 349.626C384.179 348.662 384.205 347.668 384.442 346.715C384.68 345.762 385.122 344.872 385.739 344.107C386.356 343.343 387.133 342.722 388.014 342.289C388.896 341.855 389.862 341.62 390.844 341.598L447.915 340.369C449.513 340.326 451.074 340.856 452.316 341.862C453.558 342.869 454.4 344.286 454.689 345.858L465.882 404.928C466.061 405.873 466.036 406.845 465.808 407.78C465.581 408.714 465.156 409.589 464.563 410.346C463.97 411.103 463.222 411.724 462.369 412.169C461.516 412.613 460.578 412.87 459.618 412.922L403.165 415.99C403.043 415.996 402.921 416 402.8 416Z" fill="#98A6A1"/>
<path d="M439.279 359.662C438.572 359.257 437.734 359.146 436.946 359.352C436.158 359.559 435.483 360.067 435.065 360.766L424.812 381.075C422.03 376.755 418.521 372.95 414.441 369.827C413.124 368.809 410.991 369.628 410.227 370.931C409.296 372.522 410.011 374.127 411.331 375.145C416.067 378.887 419.818 383.729 422.257 389.249C423.2 391.327 426.593 391.196 427.576 389.249L440.384 363.877C440.778 363.167 440.882 362.333 440.677 361.548C440.471 360.763 439.971 360.088 439.28 359.662L439.279 359.662Z" fill="#3B3879"/>
</g>
<defs>
<clipPath id="clip0_55_333">
<rect width="466" height="416" fill="white"/>
</clipPath>
</defs>
</svg>
