<svg width="600" height="436" viewBox="0 0 600 436" fill="none" xmlns="http://www.w3.org/2000/svg">
<g clip-path="url(#clip0_55_284)">
<path d="M564.83 2.88579H106.979C106.966 2.1163 106.651 1.38267 106.102 0.842902C105.553 0.303137 104.814 0.00043446 104.044 0H86.011C85.2407 0.000327843 84.5014 0.302988 83.9523 0.842776C83.4032 1.38256 83.0884 2.11627 83.0756 2.88579H78.6596C78.6467 2.1163 78.3318 1.38267 77.7827 0.842902C77.2337 0.303137 76.4944 0.00043446 75.7242 0H57.6915C56.9213 0.00043446 56.182 0.303137 55.633 0.842902C55.0839 1.38267 54.769 2.1163 54.7561 2.88579H38.6883C29.3636 2.89625 20.4239 6.60185 13.8303 13.1896C7.23675 19.7774 3.5278 28.7093 3.51717 38.0259V38.3719C3.46204 38.3687 3.4092 38.3553 3.35291 38.3553H2.94055C2.55439 38.3553 2.17201 38.4313 1.81524 38.579C1.45847 38.7266 1.1343 38.943 0.861244 39.2158C0.588187 39.4887 0.371587 39.8125 0.223814 40.169C0.0760421 40.5255 -1.08734e-05 40.9075 1.16601e-09 41.2933V75.659C-1.08734e-05 76.0449 0.0760421 76.4269 0.223814 76.7834C0.371587 77.1398 0.588187 77.4637 0.861244 77.7366C1.1343 78.0094 1.45847 78.2258 1.81524 78.3734C2.17201 78.5211 2.55439 78.597 2.94055 78.597H3.35291C3.40921 78.597 3.46204 78.5836 3.51717 78.5805V400.86C3.5278 410.176 7.23675 419.108 13.8303 425.696C20.4239 432.284 29.3636 435.99 38.6883 436H564.83C574.154 435.989 583.094 432.284 589.687 425.696C596.281 419.108 599.989 410.176 600 400.86V38.0259C599.989 28.7094 596.281 19.7776 589.687 13.1898C583.094 6.60202 574.154 2.89637 564.83 2.88579ZM589.414 400.86C589.407 407.372 586.814 413.616 582.205 418.22C577.596 422.825 571.347 425.416 564.83 425.423H38.6883C32.1702 425.416 25.9212 422.826 21.3122 418.221C16.7032 413.616 14.1106 407.372 14.1031 400.86V38.0259C14.1106 31.5135 16.7032 25.27 21.3122 20.6651C25.9212 16.0602 32.1702 13.4699 38.6883 13.4626H564.83C571.347 13.4701 577.596 16.0604 582.205 20.6653C586.814 25.2702 589.407 31.5136 589.414 38.0259V400.86Z" fill="#262626"/>
<path d="M564.829 431.299H38.6882C30.611 431.29 22.8672 428.08 17.1557 422.374C11.4442 416.667 8.23154 408.93 8.22241 400.86V38.0261C8.23152 29.9558 11.4442 22.2187 17.1557 16.5122C22.8672 10.8057 30.611 7.59575 38.6882 7.58667H564.829C572.907 7.59572 580.65 10.8056 586.362 16.5121C592.073 22.2186 595.286 29.9557 595.295 38.026V400.86C595.286 408.93 592.073 416.667 586.362 422.374C580.65 428.08 572.907 431.29 564.829 431.299Z" fill="#323535"/>
<path d="M564.99 406.777H38.5272C36.7494 406.775 35.045 406.069 33.7879 404.813C32.5308 403.556 31.8237 401.853 31.8218 400.077V38.8081C31.8238 37.0319 32.5309 35.329 33.788 34.073C35.045 32.8171 36.7494 32.1106 38.5272 32.1086H564.99C566.768 32.1106 568.473 32.817 569.73 34.073C570.987 35.3289 571.694 37.0319 571.696 38.8081V400.077C571.694 401.853 570.987 403.556 569.73 404.813C568.473 406.069 566.768 406.775 564.99 406.777Z" fill="white"/>
<path d="M20.1381 221.329C21.5284 221.329 22.6554 220.203 22.6554 218.814C22.6554 217.425 21.5284 216.299 20.1381 216.299C18.7479 216.299 17.6208 217.425 17.6208 218.814C17.6208 220.203 18.7479 221.329 20.1381 221.329Z" fill="white"/>
<path d="M229.748 79.9126H117.908C109.134 79.9225 100.723 83.4091 94.5198 89.6073C88.3161 95.8056 84.8266 104.209 84.8167 112.975V123.075C84.5871 123.012 84.346 123.003 84.1124 123.049C83.8788 123.095 83.6591 123.195 83.4706 123.34C83.2822 123.485 83.1301 123.673 83.0264 123.887C82.9227 124.101 82.8702 124.336 82.8732 124.574V132.341C82.8702 132.579 82.9227 132.814 83.0264 133.028C83.1301 133.242 83.2822 133.43 83.4706 133.575C83.6591 133.72 83.8788 133.82 84.1124 133.866C84.346 133.912 84.5871 133.903 84.8167 133.84V145.6C84.5871 145.537 84.346 145.528 84.1124 145.574C83.8788 145.62 83.6591 145.72 83.4706 145.865C83.2821 146.01 83.13 146.197 83.0264 146.411C82.9227 146.626 82.8702 146.861 82.8732 147.099V166.517C82.8702 166.755 82.9227 166.99 83.0264 167.204C83.13 167.418 83.2821 167.605 83.4706 167.751C83.6591 167.896 83.8788 167.995 84.1124 168.041C84.346 168.087 84.5871 168.078 84.8167 168.015V175.115C84.5871 175.052 84.346 175.043 84.1124 175.089C83.8788 175.135 83.6591 175.235 83.4706 175.38C83.2821 175.525 83.13 175.713 83.0264 175.927C82.9227 176.141 82.8702 176.376 82.8732 176.614V196.032C82.8702 196.27 82.9226 196.505 83.0263 196.719C83.13 196.933 83.2821 197.12 83.4706 197.266C83.6591 197.411 83.8788 197.511 84.1124 197.557C84.346 197.603 84.5871 197.594 84.8167 197.53V402.587C84.8266 411.353 88.3161 419.756 94.5198 425.955C100.723 432.153 109.134 435.639 117.908 435.649H229.748C238.521 435.639 246.932 432.153 253.136 425.955C259.339 419.756 262.829 411.353 262.839 402.587V112.975C262.829 104.209 259.339 95.8056 253.136 89.6073C246.932 83.4091 238.521 79.9225 229.748 79.9126ZM255.842 402.587C255.835 409.499 253.083 416.126 248.191 421.014C243.299 425.902 236.666 428.651 229.748 428.659H117.908C110.989 428.651 104.357 425.902 99.4647 421.014C94.5728 416.126 91.821 409.499 91.8132 402.587V112.975C91.821 106.063 94.5728 99.4358 99.4647 94.548C104.357 89.6603 110.989 86.9109 117.908 86.903H229.748C236.666 86.9109 243.299 89.6603 248.191 94.548C253.083 99.4358 255.835 106.063 255.842 112.975V402.587Z" fill="#262626"/>
<path d="M229.748 432.543H117.908C109.959 432.534 102.338 429.375 96.7176 423.759C91.097 418.143 87.9353 410.529 87.9263 402.587V112.975C87.9353 105.033 91.0969 97.4191 96.7176 91.8033C102.338 86.1875 109.959 83.0285 117.908 83.0195H229.748C237.697 83.0285 245.317 86.1875 250.938 91.8033C256.559 97.4191 259.72 105.033 259.729 112.975V402.587C259.72 410.529 256.559 418.143 250.938 423.759C245.317 429.375 237.697 432.534 229.748 432.543Z" fill="#323535"/>
<path d="M232.512 427.882H115.144C109.783 427.876 104.643 425.746 100.852 421.958C97.0614 418.17 94.929 413.035 94.9229 407.678V107.883C94.9289 102.527 97.0614 97.3916 100.852 93.6039C104.643 89.8163 109.783 87.6858 115.144 87.6797H130.45C131.336 87.6807 132.186 88.0328 132.812 88.6589C133.439 89.2849 133.791 90.1337 133.792 91.019C133.795 93.6345 134.836 96.1419 136.687 97.9913C138.538 99.8407 141.048 100.881 143.666 100.884H202.435C205.053 100.881 207.563 99.8407 209.414 97.9913C211.265 96.142 212.306 93.6345 212.309 91.019C212.31 90.1337 212.662 89.2849 213.289 88.6589C213.915 88.0328 214.765 87.6807 215.651 87.6797H232.512C237.873 87.6858 243.013 89.8163 246.804 93.6039C250.594 97.3916 252.727 102.527 252.733 107.883V407.678C252.727 413.035 250.594 418.17 246.804 421.958C243.013 425.746 237.873 427.876 232.512 427.882Z" fill="white"/>
<path d="M178.881 94.476H164.888C164.475 94.476 164.08 94.3124 163.788 94.021C163.497 93.7297 163.333 93.3346 163.333 92.9226C163.333 92.5106 163.497 92.1155 163.788 91.8241C164.08 91.5328 164.475 91.3691 164.888 91.3691H178.881C179.293 91.3701 179.687 91.5342 179.978 91.8254C180.269 92.1166 180.432 92.5112 180.432 92.9226C180.432 93.3339 180.269 93.7285 179.978 94.0198C179.687 94.311 179.293 94.4751 178.881 94.476Z" fill="white"/>
<path d="M188.598 94.0876C189.028 94.0876 189.376 93.7399 189.376 93.3109C189.376 92.8819 189.028 92.5342 188.598 92.5342C188.169 92.5342 187.821 92.8819 187.821 93.3109C187.821 93.7399 188.169 94.0876 188.598 94.0876Z" fill="white"/>
<path d="M189.386 167.479L189.549 171.093C208.039 170.265 229.449 171.875 252.236 175.674V172.01C229.414 168.24 207.956 166.648 189.386 167.479Z" fill="#CCCCCC"/>
<path d="M166.396 238.257C166.252 239.64 166.135 241.031 166.045 242.431C165.854 245.184 165.759 247.958 165.759 250.754C165.773 276.788 174.197 302.122 189.778 322.988C205.358 343.855 227.264 359.14 252.236 366.57V134.917C229.303 141.729 208.907 155.183 193.627 173.577C178.347 191.972 168.871 214.481 166.396 238.257Z" fill="#6C63FF"/>
<path d="M106.052 168.225C107.368 168.225 108.435 167.159 108.435 165.844C108.435 164.528 107.368 163.462 106.052 163.462C104.735 163.462 103.668 164.528 103.668 165.844C103.668 167.159 104.735 168.225 106.052 168.225Z" fill="#CCCCCC"/>
<path d="M100.971 263.766C103.572 263.766 105.68 261.659 105.68 259.061C105.68 256.462 103.572 254.356 100.971 254.356C98.3705 254.356 96.2622 256.462 96.2622 259.061C96.2622 261.659 98.3705 263.766 100.971 263.766Z" fill="#CCCCCC"/>
<path d="M189.65 139.247C191.534 139.247 193.061 137.721 193.061 135.839C193.061 133.957 191.534 132.432 189.65 132.432C187.767 132.432 186.24 133.957 186.24 135.839C186.24 137.721 187.767 139.247 189.65 139.247Z" fill="#CCCCCC"/>
<path d="M112.056 328.232C113.559 328.232 114.777 327.014 114.777 325.513C114.777 324.011 113.559 322.794 112.056 322.794C110.553 322.794 109.335 324.011 109.335 325.513C109.335 327.014 110.553 328.232 112.056 328.232Z" fill="#CCCCCC"/>
<path d="M167.019 366.298C168.646 366.298 169.966 364.98 169.966 363.354C169.966 361.728 168.646 360.409 167.019 360.409C165.391 360.409 164.072 361.728 164.072 363.354C164.072 364.98 165.391 366.298 167.019 366.298Z" fill="#CCCCCC"/>
<path d="M252.682 66.905H246.867V61.0947H243.747V66.905H237.929V70.024H243.747V75.8343H246.867V70.024H252.682V66.905Z" fill="#CCCCCC"/>
<path opacity="0.1" d="M210.435 240.602C216.046 240.602 220.596 236.057 220.596 230.45C220.596 224.843 216.046 220.297 210.435 220.297C204.823 220.297 200.273 224.843 200.273 230.45C200.273 236.057 204.823 240.602 210.435 240.602Z" fill="black"/>
<path opacity="0.1" d="M215.515 312.13C221.127 312.13 225.676 307.585 225.676 301.978C225.676 296.371 221.127 291.825 215.515 291.825C209.903 291.825 205.354 296.371 205.354 301.978C205.354 307.585 209.903 312.13 215.515 312.13Z" fill="black"/>
<path d="M170.687 238.329C158.219 229.964 148.931 221.711 143.084 213.8C137.251 205.907 135.171 198.778 136.901 192.609C138.632 186.439 144.118 181.428 153.207 177.715C162.318 173.992 174.545 171.764 189.548 171.093L189.387 167.479C157.259 168.918 137.381 177.495 133.415 191.632C129.45 205.769 141.969 223.419 168.669 241.332C190.442 255.94 219.604 269.43 252.236 280.114V276.307C220.375 265.787 191.944 252.591 170.687 238.329Z" fill="#CCCCCC"/>
<path opacity="0.1" d="M170.686 241.223C169.212 240.233 167.782 239.245 166.396 238.257C166.252 239.64 166.135 241.031 166.045 242.431C166.904 243.031 167.779 243.629 168.669 244.225C190.442 258.834 219.604 272.324 252.236 283.008V279.2C220.376 268.68 191.945 255.484 170.686 241.223Z" fill="black"/>
<path d="M305.528 182.962C291.288 178.974 277.174 175.726 263.479 173.226V176.902C276.857 179.367 290.64 182.549 304.551 186.445C348.838 198.847 388.913 216.922 414.5 236.034L416.668 233.136C390.737 213.768 350.228 195.48 305.528 182.962Z" fill="#CCCCCC"/>
<path d="M411.844 250.754C411.832 232.561 407.712 214.604 399.788 198.222C391.864 181.841 380.342 167.458 366.081 156.145C351.819 144.832 335.186 136.881 317.421 132.885C299.656 128.889 281.217 128.95 263.479 133.065V368.436C290.149 374.639 318.136 371.618 342.865 359.868C367.594 348.119 387.602 328.334 399.618 303.75C400.242 302.479 400.841 301.196 401.417 299.901C408.314 284.434 411.866 267.687 411.844 250.754Z" fill="#6C63FF"/>
<path d="M294.123 108.151C294.889 108.151 295.509 107.531 295.509 106.767C295.509 106.002 294.889 105.382 294.123 105.382C293.358 105.382 292.738 106.002 292.738 106.767C292.738 107.531 293.358 108.151 294.123 108.151Z" fill="#F2F2F2"/>
<path d="M387.883 118.209C389.616 118.209 391.022 116.805 391.022 115.073C391.022 113.341 389.616 111.937 387.883 111.937C386.15 111.937 384.745 113.341 384.745 115.073C384.745 116.805 386.15 118.209 387.883 118.209Z" fill="#CCCCCC"/>
<path d="M499.194 250.308C502.008 250.308 504.29 248.028 504.29 245.217C504.29 242.405 502.008 240.125 499.194 240.125C496.38 240.125 494.098 242.405 494.098 245.217C494.098 248.028 496.38 250.308 499.194 250.308Z" fill="#CCCCCC"/>
<path d="M459.349 166.086C460.556 166.086 461.535 165.108 461.535 163.902C461.535 162.695 460.556 161.718 459.349 161.718C458.141 161.718 457.163 162.695 457.163 163.902C457.163 165.108 458.141 166.086 459.349 166.086Z" fill="#CCCCCC"/>
<path d="M451.697 237.078C452.904 237.078 453.883 236.1 453.883 234.893C453.883 233.687 452.904 232.709 451.697 232.709C450.49 232.709 449.511 233.687 449.511 234.893C449.511 236.1 450.49 237.078 451.697 237.078Z" fill="#CCCCCC"/>
<path d="M391.822 381.287H388.168V377.639H386.21V381.287H382.559V383.244H386.21V386.893H388.168V383.244H391.822V381.287Z" fill="#CCCCCC"/>
<path d="M476.099 362.613H473.37V359.886H471.903V362.613H469.174V364.077H471.903V366.804H473.37V364.077H476.099V362.613Z" fill="#CCCCCC"/>
<path opacity="0.1" d="M292.738 166.305C298.35 166.305 302.899 161.76 302.899 156.153C302.899 150.546 298.35 146 292.738 146C287.126 146 282.577 150.546 282.577 156.153C282.577 161.76 287.126 166.305 292.738 166.305Z" fill="black"/>
<path opacity="0.1" d="M292.738 256.292C298.35 256.292 302.899 251.747 302.899 246.14C302.899 240.533 298.35 235.987 292.738 235.987C287.126 235.987 282.577 240.533 282.577 246.14C282.577 251.747 287.126 256.292 292.738 256.292Z" fill="black"/>
<path opacity="0.1" d="M347.239 201.838C352.85 201.838 357.4 197.293 357.4 191.686C357.4 186.079 352.85 181.534 347.239 181.534C341.627 181.534 337.077 186.079 337.077 191.686C337.077 197.293 341.627 201.838 347.239 201.838Z" fill="black"/>
<path opacity="0.1" d="M380.955 270.598C386.567 270.598 391.116 266.052 391.116 260.445C391.116 254.838 386.567 250.293 380.955 250.293C375.343 250.293 370.794 254.838 370.794 260.445C370.794 266.052 375.343 270.598 380.955 270.598Z" fill="black"/>
<path d="M439.493 255.839C434.721 248.524 427.042 240.886 416.668 233.137L414.5 236.034C434.66 251.092 444.051 265.486 440.943 276.564C439.213 282.733 433.727 287.744 424.638 291.457C415.526 295.18 403.299 297.408 388.296 298.079C385.108 298.222 381.837 298.293 378.483 298.293C349.127 298.292 313.73 292.862 277.541 282.727C272.796 281.398 268.109 280.008 263.479 278.557V282.345C267.791 283.683 272.152 284.972 276.564 286.21C313.069 296.433 348.808 301.91 378.501 301.91C381.9 301.91 385.225 301.838 388.458 301.693C420.586 300.254 440.464 291.677 444.429 277.54C446.269 270.983 444.608 263.681 439.493 255.839Z" fill="#CCCCCC"/>
<path opacity="0.1" d="M388.297 300.972C385.11 301.114 381.838 301.186 378.482 301.186C349.129 301.186 313.729 295.756 277.54 285.621C272.795 284.292 268.108 282.902 263.479 281.451V285.239C267.79 286.577 272.151 287.866 276.563 289.104C313.07 299.326 348.806 304.803 378.5 304.803C381.9 304.803 385.227 304.73 388.46 304.586C392.365 304.412 396.084 304.134 399.618 303.75C400.242 302.479 400.842 301.196 401.417 299.901C397.312 300.405 392.938 300.762 388.297 300.972Z" fill="black"/>
<path d="M347.198 162.569C354.515 162.569 360.447 156.643 360.447 149.332C360.447 142.021 354.515 136.095 347.198 136.095C339.881 136.095 333.95 142.021 333.95 149.332C333.95 156.643 339.881 162.569 347.198 162.569Z" fill="white"/>
<path d="M347.238 129.849C342.216 129.849 337.399 131.842 333.848 135.391C330.297 138.939 328.302 143.751 328.302 148.769C328.302 159.219 347.238 193.532 347.238 193.532C347.238 193.532 366.175 159.219 366.175 148.769C366.175 143.751 364.18 138.939 360.629 135.391C357.077 131.842 352.261 129.849 347.238 129.849ZM347.238 157.999C345.503 157.999 343.806 157.484 342.363 156.521C340.92 155.558 339.795 154.188 339.131 152.586C338.467 150.984 338.293 149.221 338.631 147.52C338.97 145.819 339.806 144.257 341.033 143.031C342.26 141.805 343.824 140.969 345.526 140.631C347.229 140.293 348.993 140.466 350.597 141.13C352.2 141.794 353.571 142.918 354.535 144.359C355.499 145.801 356.014 147.497 356.014 149.231C356.014 151.556 355.089 153.786 353.444 155.431C351.798 157.075 349.566 157.999 347.238 157.999Z" fill="#3F3D56"/>
<path d="M292.548 210.554C299.865 210.554 305.796 204.627 305.796 197.317C305.796 190.006 299.865 184.08 292.548 184.08C285.231 184.08 279.299 190.006 279.299 197.317C279.299 204.627 285.231 210.554 292.548 210.554Z" fill="white"/>
<path d="M292.588 177.834C287.565 177.834 282.749 179.827 279.198 183.375C275.646 186.924 273.651 191.736 273.651 196.754C273.651 207.203 292.588 241.517 292.588 241.517C292.588 241.517 311.524 207.204 311.524 196.754C311.524 191.736 309.529 186.924 305.978 183.375C302.427 179.827 297.61 177.834 292.588 177.834ZM292.588 205.984C290.852 205.984 289.155 205.469 287.712 204.506C286.269 203.542 285.144 202.173 284.48 200.571C283.816 198.969 283.642 197.206 283.981 195.505C284.319 193.804 285.155 192.242 286.383 191.016C287.61 189.789 289.173 188.954 290.876 188.616C292.578 188.278 294.343 188.451 295.946 189.115C297.55 189.779 298.92 190.902 299.884 192.344C300.849 193.786 301.363 195.481 301.363 197.216C301.363 199.541 300.439 201.771 298.793 203.415C297.147 205.06 294.915 205.984 292.588 205.984Z" fill="#3F3D56"/>
<path d="M292.548 125.34C299.865 125.34 305.796 119.413 305.796 112.102C305.796 104.792 299.865 98.8652 292.548 98.8652C285.231 98.8652 279.299 104.792 279.299 112.102C279.299 119.413 285.231 125.34 292.548 125.34Z" fill="white"/>
<path d="M292.588 92.6191C287.565 92.6191 282.749 94.6125 279.198 98.1608C275.646 101.709 273.651 106.521 273.651 111.539C273.651 121.989 292.588 156.302 292.588 156.302C292.588 156.302 311.524 121.989 311.524 111.539C311.524 106.521 309.529 101.709 305.978 98.1608C302.427 94.6125 297.61 92.6191 292.588 92.6191ZM292.588 120.769C290.852 120.769 289.155 120.255 287.712 119.291C286.269 118.328 285.144 116.958 284.48 115.356C283.816 113.754 283.642 111.991 283.981 110.29C284.319 108.59 285.155 107.027 286.383 105.801C287.61 104.575 289.173 103.74 290.876 103.401C292.578 103.063 294.343 103.237 295.946 103.9C297.55 104.564 298.92 105.688 299.884 107.13C300.849 108.572 301.363 110.267 301.363 112.001C301.363 113.152 301.136 114.293 300.695 115.356C300.254 116.42 299.608 117.387 298.793 118.201C297.978 119.015 297.011 119.661 295.946 120.101C294.881 120.542 293.74 120.769 292.588 120.769Z" fill="#CCCCCC"/>
<path d="M381.148 227.928C388.465 227.928 394.396 222.002 394.396 214.691C394.396 207.38 388.465 201.454 381.148 201.454C373.831 201.454 367.899 207.38 367.899 214.691C367.899 222.002 373.831 227.928 381.148 227.928Z" fill="white"/>
<path d="M381.188 195.208C376.166 195.208 371.349 197.201 367.798 200.749C364.247 204.297 362.251 209.11 362.251 214.128C362.251 224.577 381.188 258.891 381.188 258.891C381.188 258.891 400.125 224.577 400.125 214.128C400.125 209.11 398.13 204.297 394.578 200.749C391.027 197.201 386.21 195.208 381.188 195.208ZM381.188 223.357C379.452 223.357 377.756 222.843 376.313 221.88C374.87 220.916 373.745 219.547 373.081 217.945C372.416 216.343 372.243 214.58 372.581 212.879C372.92 211.178 373.756 209.616 374.983 208.389C376.21 207.163 377.774 206.328 379.476 205.99C381.178 205.651 382.943 205.825 384.546 206.489C386.15 207.152 387.52 208.276 388.485 209.718C389.449 211.16 389.964 212.855 389.964 214.589C389.964 216.915 389.039 219.145 387.393 220.789C385.748 222.434 383.516 223.357 381.188 223.357Z" fill="#CCCCCC"/>
<path d="M210.572 198.144C217.889 198.144 223.82 192.218 223.82 184.907C223.82 177.596 217.889 171.67 210.572 171.67C203.255 171.67 197.323 177.596 197.323 184.907C197.323 192.218 203.255 198.144 210.572 198.144Z" fill="white"/>
<path d="M210.612 165.424C205.59 165.424 200.773 167.417 197.222 170.965C193.67 174.514 191.675 179.326 191.675 184.344C191.675 194.794 210.612 229.107 210.612 229.107C210.612 229.107 229.549 194.794 229.549 184.344C229.549 179.326 227.553 174.514 224.002 170.965C220.451 167.417 215.634 165.424 210.612 165.424ZM210.612 193.574C208.876 193.574 207.18 193.059 205.737 192.096C204.293 191.132 203.169 189.763 202.504 188.161C201.84 186.559 201.666 184.796 202.005 183.095C202.344 181.394 203.179 179.832 204.407 178.606C205.634 177.38 207.198 176.544 208.9 176.206C210.602 175.868 212.367 176.041 213.97 176.705C215.574 177.369 216.944 178.493 217.909 179.934C218.873 181.376 219.388 183.071 219.388 184.806C219.388 187.131 218.463 189.361 216.817 191.006C215.171 192.65 212.939 193.574 210.612 193.574Z" fill="#CCCCCC"/>
<path d="M215.54 270.121C222.857 270.121 228.789 264.195 228.789 256.884C228.789 249.573 222.857 243.647 215.54 243.647C208.223 243.647 202.291 249.573 202.291 256.884C202.291 264.195 208.223 270.121 215.54 270.121Z" fill="white"/>
<path d="M215.58 237.401C210.558 237.401 205.741 239.395 202.19 242.943C198.639 246.491 196.644 251.303 196.644 256.321C196.644 266.771 215.58 301.084 215.58 301.084C215.58 301.084 234.517 266.771 234.517 256.321C234.517 251.303 232.522 246.491 228.97 242.943C225.419 239.395 220.603 237.401 215.58 237.401ZM215.58 265.551C213.845 265.551 212.148 265.037 210.705 264.073C209.262 263.11 208.137 261.74 207.473 260.138C206.808 258.536 206.635 256.773 206.973 255.072C207.312 253.372 208.148 251.809 209.375 250.583C210.602 249.357 212.166 248.522 213.868 248.183C215.57 247.845 217.335 248.019 218.938 248.682C220.542 249.346 221.913 250.47 222.877 251.912C223.841 253.354 224.356 255.049 224.356 256.783C224.356 259.108 223.431 261.338 221.785 262.983C220.14 264.627 217.908 265.551 215.58 265.551Z" fill="#3F3D56"/>
</g>
<defs>
<clipPath id="clip0_55_284">
<rect width="600" height="436" fill="white"/>
</clipPath>
</defs>
</svg>
